<svg width="20" height="20" viewBox="0 0 20 20" xmlns="http://www.w3.org/2000/svg">
    <title>
        Group 2
    </title>
    <desc>
        Created with Sketch.
    </desc>
    <path d="M10 20c5.523 0 10-4.477 10-10S15.523 0 10 0 0 4.477 0 10s4.477 10 10 10zm-.983-8.527v-.588c0-.447.09-.824.273-1.132.182-.307.506-.607.97-.9.37-.23.635-.44.797-.627.162-.187.243-.4.243-.643 0-.19-.087-.343-.26-.455-.173-.11-.4-.167-.677-.167-.688 0-1.492.245-2.413.732L7 5.832c1.135-.646 2.32-.97 3.555-.97 1.016 0 1.813.224 2.392.67.58.447.868 1.055.868 1.825 0 .552-.128 1.03-.386 1.433s-.67.785-1.235 1.145c-.478.31-.778.536-.9.68-.12.143-.18.313-.18.51v.348H9.017zm-.294 2.392c0-.42.122-.743.365-.97.244-.228.603-.342 1.077-.342.456 0 .806.115 1.05.345.243.23.365.553.365.967 0 .415-.126.736-.38.964-.252.227-.597.34-1.035.34-.45 0-.804-.112-1.06-.337-.255-.226-.382-.548-.382-.968z" fill="#fff"/>
</svg>
